# xmcd
#
# Track frame offsets:
#	150
#	10767
#	27050
#	44372
#	61288
#	75528
#	92769
#	105364
#	120736
#	139093
#	161137
#	173001
#	185104
#	198963
#	214495
#	230525
#	244444
#	271655
#
# Disc length: 3943 seconds
#
# Revision: 0
# Processed by: cddbd v1.5.1PL2 Copyright (c) Steve Scherf et al.
# Submitted via: dBpowerAMP V4.0
#
DISCID=f30f6512
DTITLE=The Lucy Show - Mania (2005 Reissue)
DYEAR=1986
DGENRE=Post-Punk
TTITLE0=Land And The Life
TTITLE1=View From The Outside
TTITLE2=Sojourn's End
TTITLE3=Sad September
TTITLE4=A Million Things
TTITLE5=Sun And Moon
TTITLE6=Shame
TTITLE7=Melody
TTITLE8=Part Of Me Now
TTITLE9=New Message
TTITLE10=Jam In E (Bonus Track)
TTITLE11=Invitation (Bonus Track)
TTITLE12=Civil Servant (Bonus Track)
TTITLE13=Sun And Moon (Live)
TTITLE14=View From The Outside (Live)
TTITLE15=New Message (Basement Demo)
TTITLE16=A Million Things (Original Mix)
TTITLE17=DATA
EXTD=www.thelucyshow.com
EXTT0=
EXTT1=
EXTT2=
EXTT3=
EXTT4=
EXTT5=
EXTT6=
EXTT7=
EXTT8=
EXTT9=
EXTT10=
EXTT11=
EXTT12=
EXTT13=
EXTT14=
EXTT15=
EXTT16=
EXTT17=
PLAYORDER=
